<svg xmlns="http://www.w3.org/2000/svg" viewBox="0 0 111.1 115.5">
  <path fill="#FF7539" d="M57.1 107.8h-2.8c-27.5 0-49.7-22.3-49.7-49.7v-2.8c0-27.5 22.3-49.7 49.7-49.7h2.8c27.5 0 49.7 22.3 49.7 49.7v2.8c0 27.4-22.3 49.7-49.7 49.7z"/>
  <path fill="#F9F9F9" d="M47.6 32.6L42.7 38h-8.5c-2.9 0-5.4 2.4-5.4 5.4v32.2c0 2.9 2.4 5.4 5.4 5.4h42.9c2.9 0 5.4-2.4 5.4-5.4V43.3c0-2.9-2.4-5.4-5.4-5.4h-8.5l-4.9-5.4H47.6zm8.1 40.1c-7.4 0-13.4-6-13.4-13.4s6-13.4 13.4-13.4 13.4 6 13.4 13.4-6 13.4-13.4 13.4z"/>
</svg>
