<svg xmlns="http://www.w3.org/2000/svg" viewBox="-409.4 238.2 86.8 86.8">
  <circle cx="-366" cy="281.6" r="43.4" fill="#ff7539"/>
  <path d="M-345.1 260.6c-.6-1.8-2.3-3-4.3-3h-33.1c-2 0-3.6 1.3-4.3 3l-6.3 18v24.1c0 1.7 1.4 3 3 3h3c1.7 0 3-1.4 3-3v-3h36.1v3c0 1.7 1.4 3 3 3h3c1.7 0 3-1.4 3-3v-24.1l-6.1-18zm-37.4 30c-2.5 0-4.5-2-4.5-4.5s2-4.5 4.5-4.5 4.5 2 4.5 4.5-2 4.5-4.5 4.5zm33.1 0c-2.5 0-4.5-2-4.5-4.5s2-4.5 4.5-4.5 4.5 2 4.5 4.5-2 4.5-4.5 4.5zm-37.6-15l4.5-13.5h33.1l4.5 13.5H-387z" fill="#f9f9f9"/>
</svg>
