<svg xmlns="http://www.w3.org/2000/svg" viewBox="0 0 111.1 115.5">
  <path fill="#484848" d="M55.6 108.5C27 108.5 3.9 85.3 3.9 56.7 3.9 28.1 27 5 55.6 5s51.7 23.2 51.7 51.7c.1 28.6-23.1 51.8-51.7 51.8z"/>
  <path fill="#F9F9F9" d="M80.9 43h-37c-2.8 0-5-2.2-5-5s2.2-5 5-5h37c2.8 0 5 2.2 5 5s-2.3 5-5 5zM80.9 63h-37c-2.8 0-5-2.2-5-5s2.2-5 5-5h37c2.8 0 5 2.2 5 5s-2.3 5-5 5zM80.9 83h-37c-2.8 0-5-2.2-5-5s2.2-5 5-5h37c2.8 0 5 2.2 5 5s-2.3 5-5 5z"/>
  <circle fill="#F9F9F9" cx="30.3" cy="37.9" r="5"/>
  <circle fill="#F9F9F9" cx="30.3" cy="57.9" r="5"/>
  <circle fill="#F9F9F9" cx="30.3" cy="77.9" r="5"/>
</svg>
