<svg xmlns="http://www.w3.org/2000/svg" xmlns:xlink="http://www.w3.org/1999/xlink" viewBox="0 0 474.9 455.9">
  <defs>
    <path id="a" d="M120.4 283.9h234.2c8.2 0 14.9-6.7 14.9-14.9V34.8c0-8.2-6.7-14.9-14.9-14.9H120.4c-8.2 0-14.9 6.7-14.9 14.9V269c0 8.2 6.6 14.9 14.9 14.9z"/>
  </defs>
  <use xlink:href="#a" overflow="visible" fill="#484848"/>
  <clipPath id="b">
    <use xlink:href="#a" overflow="visible"/>
  </clipPath>
  <g clip-path="url(#b)">
    <path fill="#C30000" d="M371 144.3H104.1L237.5 36.8zM104.6 144.3H371v108.1H104.6z"/>
    <path fill="#212121" d="M315.4 98.7l.2 226.1c0 4.5-3.7 8.2-8.2 8.2h-173c-4.5 0-8.2-3.7-8.2-8.2l-.1-267.6c0-4.5 3.7-8.2 8.2-8.2l130.3-.6" opacity=".3"/>
    <path fill="#F9F9F9" d="M332.1 83.8l.2 226.1c0 4.5-3.7 8.2-8.2 8.2l-172.9.1c-4.5 0-8.2-3.7-8.2-8.2l-.1-267.6c0-4.5 3.7-8.2 8.2-8.2l130.3-.6"/>
    <path fill="#FF3D00" d="M237.1 213.8l-132.2-69.3v139.2h264.4"/>
    <g>
      <path fill="#FF7539" d="M371 144.1v139.8H105"/>
    </g>
  </g>
  <path clip-path="url(#b)" fill="#484848" d="M345 89.8L284.9 98c-4.5 0-8.1-3.6-8.1-8l3.8-65.1L345 89.8z"/>
  <path clip-path="url(#b)" fill="#F9F9F9" d="M332.1 84.2l-44.5-.1c-3.5 0-6.3-2.8-6.3-6.2V33.8"/>
  <g clip-path="url(#b)">
    <path fill="#484848" d="M221.1 178c-1.7 0-3-1.4-3-3 0-1.7 1.3-3 3-3h33.3c1.7 0 3 1.3 3 3s-1.3 3-3 3h-33.3z"/>
  </g>
  <path clip-path="url(#b)" fill="#484848" d="M297.6 146.8c-1.6-.5-3.3.3-3.8 1.8l-1.4 4c-3.8 1.4-22.3 7.8-54.8 7.8-36 0-58.3-7.8-59.2-8.1l-1.3-3.7c-.5-1.6-2.2-2.4-3.8-1.8-1.6.5-2.4 2.2-1.8 3.8l3.8 11c.4 1.2 1.6 2 2.8 2 .3 0 .7-.1 1-.2 1.6-.5 2.4-2.2 1.8-3.8l-.1-.2c8.5 2.4 28.3 7.1 56.7 7.1 26.6 0 44-4.1 52.3-6.6-.4 1.5.4 3.1 1.9 3.6.3.1.7.2 1 .2 1.2 0 2.4-.8 2.8-2l3.8-11c.7-1.6-.1-3.4-1.7-3.9z"/>
  <g opacity=".21" clip-path="url(#b)">
    <path fill="#C30000" d="M370.2 253c0 9.7-8.6 18-18.5 18H122.1c-9.9 0-17.9-8.5-17.9-18.2v21.7c0 9.7 8 18.5 17.9 18.5h229.6c9.9 0 18.5-8.8 18.5-18.5V253"/>
  </g>
  <g clip-path="url(#b)">
    <path fill="none" d="M222.9 65.1c-6.4-6.4-14.9-10-24-10s-17.6 3.5-24 10c-6.4 6.4-10 14.9-10 24s3.5 17.6 10 24c6.4 6.4 14.9 10 24 10s17.6-3.5 24-10c6.4-6.4 10-14.9 10-24-.1-9.1-3.6-17.6-10-24zm-9.1 38.9c-8.3 8.3-21.7 8.3-29.9 0-8.3-8.3-8.3-21.7 0-29.9 6.7-6.7 16.9-8 24.9-3.7 2.5-.1 5 .8 7 2.7 2.1 2.1 3 5.1 2.6 7.8 3.1 7.7 1.6 16.9-4.6 23.1z"/>
    <path fill="#FF7539" d="M226.2 61.7c-7.6-7.6-17.5-11.4-27.4-11.4-9.9 0-19.8 3.8-27.4 11.4-15.1 15.1-15.1 39.7 0 54.8 7.6 7.6 17.5 11.4 27.4 11.4 9.9 0 19.8-3.8 27.4-11.4 15.2-15.1 15.2-39.7 0-54.8zm-3.3 51.4c-6.4 6.4-14.9 10-24 10s-17.6-3.5-24-10c-6.4-6.4-10-14.9-10-24s3.5-17.6 10-24c6.4-6.4 14.9-10 24-10s17.6 3.5 24 10c6.4 6.4 10 14.9 10 24-.1 9.1-3.6 17.6-10 24z"/>
    <path fill="#FF7539" d="M215.7 86.3c-1.2 1.2-2.7 2-4.3 2.4.1 3.3-1.1 6.7-3.7 9.2-4.9 4.9-12.9 4.9-17.8 0s-4.9-12.9 0-17.8c2.8-2.8 6.7-4 10.4-3.6.4-1.3 1.2-2.5 2.2-3.5 1.7-1.7 4-2.6 6.2-2.7-8-4.3-18.1-3-24.9 3.7-8.3 8.3-8.3 21.7 0 29.9 8.3 8.3 21.7 8.3 29.9 0 6.2-6.2 7.8-15.4 4.6-23.1-.2 2.1-1.1 4-2.6 5.5z"/>
    <path fill="#212121" d="M202.5 86.3c-2.6-2.6-3.3-6.4-2.2-9.7-3.7-.4-7.6.7-10.4 3.6-4.9 4.9-4.9 12.9 0 17.8s12.9 4.9 17.8 0c2.5-2.5 3.8-5.9 3.7-9.2-3.1.7-6.5-.1-8.9-2.5z"/>
    <path fill="#F9F9F9" d="M200.4 76.6c-1.2 3.3-.4 7.1 2.2 9.7 2.4 2.4 5.8 3.2 8.9 2.4 1.6-.4 3.1-1.2 4.3-2.4 1.5-1.5 2.4-3.4 2.6-5.3.4-2.8-.5-5.7-2.6-7.8-1.9-1.9-4.5-2.8-7-2.7-2.3.1-4.5 1-6.2 2.7-1.1.9-1.8 2.1-2.2 3.4z"/>
  </g>
  <g>
    <g fill="#FF7539">
      <path d="M331.3 410.8c1.7 0 3-.6 4.2-1.8 1.2-1.2 1.7-2.6 1.7-4.3V357c0-1.7-.5-3.1-1.7-4.3-1.2-1.2-2.6-1.8-4.2-1.8s-3.6.6-4.8 1.8c-1.2 1.2-2.3 2.6-2.3 4.3v47.7c0 1.7 1.1 3.1 2.3 4.3 1.2 1.2 3.2 1.8 4.8 1.8z"/>
      <path d="M395.4 391.8c-1.7 0-3.1.6-4.2 1.7l-.1.1c-3.5 3.4-7.6 5.1-12.5 5.1s-9.1-1.7-12.5-5.2c-3.5-3.5-5.2-7.6-5.2-12.5s1.7-9.1 5.2-12.5c3.5-3.4 7.6-5.2 12.5-5.2s11.8 4.4 12.5 5.1c.8.8 2.6 1.8 4.3 1.8 1.6 0 3-.6 4.2-1.8 1.2-1.2 1.8-2.6 1.8-4.2 0-1.7-.3-2.6-1.7-4.3-1.8-2.1-12.8-8.6-21-8.6s-15.3 2.9-21.1 8.7c-5.2 5.2-8.1 11.3-8.7 18.4-.1.6-.2 25.8-.2 26.1-.2 4.4-1.9 8.6-5.1 11.7-3.5 3.5-7.6 5.7-12.5 5.7h-.2c-4.9 0-9.1-2.2-12.5-5.7-3.2-3.1-5.2-7.1-5.5-11.5v-25.1c-.3-7.7-3-14.1-8.5-19.6-5.4-5.4-11.7-8.7-21.5-8.7s-15.5 3.3-20.9 8.7c-5.7 5.7-8.9 12.5-8.9 20.6v23c0 2.3.8 4.1 2 5.2 1.2 1.2 2.7 1.8 4.4 1.8 1.7 0 2.4-.6 3.6-1.8 1.2-1.2 1.1-2.9 1.1-5.1v-23c0-3.8 2.9-9.4 6.1-12.5 3.5-3.5 8.1-5.4 13-5.4h.2c4.9 0 9.1 1.9 12.5 5.4 3.2 3.1 4.6 7 4.9 11.3v25.1c.3 7.7 3.3 14.3 8.8 19.8 5.4 5.4 14.2 8.9 20.8 8.9s16.2-3.5 21.6-9c5.4-5.4 8.3-12 8.6-19.5 5.1 3.9 11 5.8 17.8 5.8 8.2 0 15.2-2.9 21-8.7l.1-.1c1.2-1.2 1.8-2.6 1.8-4.3 0-1.7-.6-3.1-1.8-4.3-1.1-.9-2.5-1.4-4.2-1.4zM452.4 393.5c-1.2-1.2-2.6-1.8-4.3-1.8-1.7 0-3.1.6-4.2 1.7l-.1.1c-3.5 3.4-7.6 5.1-12.5 5.1s-9.1-1.7-12.5-5.2c-3.5-3.5-5.2-7.6-5.2-12.5s1.7-9.1 5.2-12.5c3.5-3.4 7.6-5.2 12.5-5.2 2.6 0 5 .5 7.2 1.5l-11.9 11.9c-1.2 1.2-1.7 2.6-1.7 4.3 0 1.7.6 3.2 1.7 4.4 1.2 1.2 2.6 1.7 4.4 1.7 1.7 0 3.1-.6 4.3-1.7l17.1-16.9c1.2-1.2 1.7-2.5 1.7-4.2 0-1.7-.6-3.1-1.7-4.2 0 0-.1 0-.1-.1l.1-.1c-5.8-5.8-12.8-8.6-21-8.6s-15.2 2.9-21 8.7c-5.8 5.8-8.7 12.8-8.7 21s2.9 15.2 8.7 21c5.8 5.8 12.8 8.7 21 8.7s15.2-2.9 21-8.6l.1-.1c1.2-1.2 1.8-2.6 1.8-4.3-.1-1.5-.7-2.9-1.9-4.1z"/>
    </g>
    <g fill="#484848">
      <path d="M50.5 351.3c-8.2 0-15.2 2.9-21 8.7-5.8 5.8-8.7 12.8-8.7 21s2.9 15.2 8.7 21c5.8 5.8 12.8 8.7 21 8.7s15.2-2.9 21-8.7c5.8-5.8 8.7-12.8 8.7-21s-2.9-15.2-8.7-21c-5.8-5.8-12.8-8.7-21-8.7zM63 393.5c-3.4 3.5-7.6 5.2-12.5 5.2s-9.1-1.7-12.5-5.2c-3.5-3.5-5.2-7.6-5.2-12.5s1.7-9.1 5.2-12.5c3.5-3.4 7.6-5.2 12.5-5.2s9.1 1.7 12.5 5.2c3.4 3.4 5.2 7.6 5.2 12.5-.1 4.9-1.8 9.1-5.2 12.5zM174.2 360.3c-5.8-5.8-12.8-8.8-21-8.8s-15.2 2.8-21 8.6c-5.8 5.8-8.7 12.8-8.7 21s2.9 15.2 8.7 21c5.8 5.8 12.8 8.7 21 8.7 6.7 0 12.6-1.9 17.6-5.7 0 4.8-1.7 8.9-5.1 12.3-3.3 3.3-7.3 5-11.9 5.2-.3 0-.6-.1-.8-.1-1.7 0-3.1.6-4.3 1.8-1.2 1.2-1.8 2.6-1.8 4.3 0 1.7.6 3.8 1.8 5 1.2 1.2 2.6 2.4 4.3 2.4h.2c8.2 0 15.2-3.6 21-9.4 5.6-5.6 8.3-12.7 8.5-20.6 0-.3.2-24.5.2-24.5 0-9-2.9-15.4-8.7-21.2zm-8.5 33.2c-3.4 3.5-7.6 5.2-12.5 5.2s-9.1-1.7-12.5-5.2c-3.5-3.5-5.2-7.6-5.2-12.5s1.7-9.1 5.2-12.5c3.5-3.4 7.6-5.2 12.5-5.2s9.1 1.7 12.5 5.2c3.4 3.4 5.2 7.6 5.2 12.5-.1 4.9-1.8 9.1-5.2 12.5zM237 360c-5.8-5.8-12.6-8.7-20.8-8.7-8.2 0-15.1 2.9-20.9 8.7-5.8 5.8-8.6 12.8-8.6 21s2.9 15.2 8.7 21c5.8 5.8 12.8 8.7 21.1 8.7 6.6 0 12.5-1.9 17.6-5.7 0 2.2.6 3.7 1.8 4.5 1.2.8 2.6 1.2 4.3 1.2s2.6-.4 3.8-1.2c1.2-.8 1.3-2.3 1.3-4.7v-24.2c-.1-7.9-2.6-14.8-8.3-20.6zm-7.7 33.5c-3.3 3.6-7.8 5.2-12.7 5.2-4.9 0-9.1-1.7-12.6-5.2-3.4-3.5-5.2-7.6-5.2-12.5s1.7-9.1 5.1-12.5c3.4-3.4 7.6-5.2 12.5-5.2s9.1 1.7 12.5 5.2c3.2 3.1 5.2 6.9 5.4 11.3.1.4.6 7.5-5 13.7zM125.5 361.4c1.2-1.2 1.8-2.5 1.8-4.2 0-1.7-.6-2.9-1.8-4.1-1.2-1.2-2.9-1.6-5.1-1.6l-7.3-.1c-8.1.6-14.8 3.4-20.1 8.7-5.7 5.7-8.8 12.6-8.8 20.7v23c0 2.3.7 4.1 1.9 5.2 1.2 1.2 2.7 1.8 4.3 1.8 1.7 0 3.2-.6 4.4-1.8 1.2-1.2 1.8-2.9 1.8-5.1 0 0-.1-23.7-.1-24.1.2-4.4 1.9-8.3 5.1-11.5 3.5-3.5 7.6-5.4 12.5-5.4h6.2c2.3.1 4.1-.3 5.2-1.5z"/>
    </g>
  </g>
</svg>
