<svg xmlns="http://www.w3.org/2000/svg" viewBox="0 0 461.2 442.7">
  <path fill="#484848" d="M120.3 50.7c0-4.5 3.7-8.2 8.2-8.2h7.6v-6.6c0-4.5 3.7-8.2 8.2-8.2l129-.6-3.3 56.2c0 4.5 3.7 8.1 8.1 8l47.2-6.4-.9 33.5 37.9 19.3V28.2c0-8.2-6.3-14.8-14.5-14.8H113.5c-8.2 0-15.2 6.6-15.2 14.8v114.4l21.2-15.8.8-76.1zm160.5 26.8c-3.5 0-6.3-2.8-6.3-6.2V27.2l50.7 50.4-44.4-.1z"/>
  <path fill="#C30000" d="M325.2 157.9l37.1-19.6v-1.8l-37.3-30z"/>
  <path fill="#3C3C3C" d="M138.1 41.4h-11.4c-4.9 0-9.2 4.7-9.2 9.2l-.3 69.3v5.5l20.4-13.2.5-70.8z"/>
  <path fill="#C30000" d="M119.3 149.1V119.9v.1l-21 16.6v1.6l26.7 13.9z"/>
  <path fill="#920A0A" d="M136.1 106.5l-18.8 14.6v16.7l-.1 11.3 6.6 3.2 12.3 5.5z"/>
  <path fill="#F9F9F9" d="M167.9 106.5c6.4 6.4 14.9 10 24 10s17.6-3.5 24-10c6.4-6.4 10-14.9 10-24s-3.5-17.6-10-24c-6.4-6.4-14.9-10-24-10s-17.6 3.5-24 10c-6.4 6.4-10 14.9-10 24 .1 9.1 3.6 17.6 10 24zm34-42.7c-2.3.1-4.5 1-6.2 2.7-1 1-1.7 2.2-2.2 3.5-1.2 3.3-.4 7.1 2.2 9.7 2.4 2.4 5.8 3.2 8.9 2.4 1.6-.4 3.1-1.2 4.3-2.4 1.5-1.5 2.4-3.4 2.6-5.3 3.2 7.7 1.7 16.8-4.6 23.1-8.3 8.3-21.7 8.3-29.9 0-8.3-8.3-8.3-21.7 0-29.9 6.8-6.8 16.9-8 24.9-3.8z"/>
  <path fill="#F9F9F9" d="M325.3 106.5V85L278 91.4c-4.5 0-8.1-3.6-8.1-8l3.3-56.2-129 .6c-4.5 0-8.2 3.7-8.2 8.2v122.1l94.2 49.4.6.3 94.5-49.7v-51.6zM164.6 55.1c7.6-7.6 17.5-11.4 27.4-11.4 9.9 0 19.8 3.8 27.4 11.4 15.1 15.1 15.1 39.7 0 54.8-7.6 7.6-17.5 11.4-27.4 11.4-9.9 0-19.8-3.8-27.4-11.4-15.2-15.1-15.2-39.7 0-54.8zm83 116.3h-33.3c-1.7 0-3-1.4-3-3 0-1.7 1.3-3 3-3h33.3c1.7 0 3 1.3 3 3 0 1.6-1.4 3-3 3zm41.2-16.4c-.4 1.2-1.6 2-2.8 2-.3 0-.7-.1-1-.2-1.5-.5-2.3-2.1-1.9-3.6-8.3 2.6-25.7 6.6-52.3 6.6-28.4 0-48.2-4.6-56.7-7.1l.1.2c.5 1.6-.3 3.3-1.8 3.8-.3.1-.7.2-1 .2-1.2 0-2.4-.8-2.8-2l-3.8-11c-.5-1.6.3-3.3 1.8-3.8s3.3.3 3.8 1.8l1.3 3.7c.8.3 23.1 8.1 59.2 8.1 32.5 0 51-6.4 54.8-7.8l1.4-4c.5-1.6 2.2-2.4 3.8-1.8 1.6.5 2.4 2.2 1.8 3.8l-3.9 11.1z"/>
  <path fill="#FF3D00" d="M101.7 271.5c-.2-.3-.5-.6-.7-.9.3.3.5.6.7.9zM104.2 274c-.3-.3-.6-.5-.9-.8.3.2.6.5.9.8zM103 272.9c-.4-.4-.7-.7-1-1.1.3.4.7.8 1 1.1zM100.8 270.1c-.2-.3-.3-.6-.5-.9.1.3.3.6.5.9zM99 265.6c-.1-.4-.1-.7-.2-1.1.1.4.1.8.2 1.1zM99.4 267.2l-.3-.9.3.9zM98.7 264c-.1-.5-.1-1.1-.1-1.6 0 .6.1 1.1.1 1.6zM100 268.7c-.1-.3-.3-.6-.4-.9.2.3.3.6.4.9zM115.2 264.4h30.4l108.2-56.9-23.6-.3-94.2-49.4-11.1-5.7-26.7-13.9V250c1.6 9.2 8.5 14.4 17 14.4z"/>
  <path fill="#FF7539" d="M112.1 277.2c-.2 0-.3 0-.4-.1.1.1.2.1.4.1zM230.8 207.6l-108.2 56.9 222.2 1.5c7.8 0 15.4-6.6 17.4-13.5V138.3l-37.1 19.6-94.3 49.7zM108 276.2c-.2-.1-.3-.1-.5-.2.2.1.4.2.5.2zM109.3 276.7c-.2 0-.3-.1-.5-.2.2.1.4.1.5.2zM110.7 277c-.2 0-.3-.1-.5-.1.2 0 .3.1.5.1zM106.7 275.6c-.1-.1-.2-.1-.3-.2.1.1.2.2.3.2zM105.2 274.8c-.1-.1-.2-.1-.2-.2.1 0 .1.1.2.2z"/>
  <path fill="#F9F9F9" d="M274.5 27.2v44.1c0 3.5 2.9 6.3 6.3 6.2l44.5.1-50.8-50.4z"/>
  <path fill="#484848" d="M247.6 165.4h-33.3c-1.7 0-3 1.3-3 3s1.3 3 3 3h33.3c1.7 0 3-1.4 3-3 0-1.7-1.4-3-3-3zM290.7 140.2c-1.6-.5-3.3.3-3.8 1.8l-1.4 4c-3.8 1.4-22.3 7.8-54.8 7.8-36 0-58.3-7.8-59.2-8.1l-1.3-3.7c-.5-1.6-2.2-2.4-3.8-1.8s-2.4 2.2-1.8 3.8l3.8 11c.4 1.2 1.6 2 2.8 2 .3 0 .7-.1 1-.2 1.6-.5 2.4-2.2 1.8-3.8l-.1-.2c8.5 2.4 28.3 7.1 56.7 7.1 26.6 0 44-4.1 52.3-6.6-.4 1.5.4 3.1 1.9 3.6.3.1.7.2 1 .2 1.2 0 2.4-.8 2.8-2l3.8-11c.7-1.6-.1-3.3-1.7-3.9z"/>
  <path fill="#F23000" d="M122.6 264.4c-11.1 0-21.2-1.7-24.4-14.4 0 8.3-1.4 18.2 6 24l18.4-9.6z"/>
  <path fill="#F25C2D" d="M362.3 262.4v-10c-2 6.9-9.6 12-17.4 12H122.6l-18.3 9.6c.2.2.5.4.7.5l.2.2c.4.2.8.5 1.1.7.1.1.2.1.3.2.3.2.6.3.9.4.1.1.3.1.5.2.3.1.5.2.8.3.2.1.3.1.5.2.3.1.6.2.8.2.2 0 .3.1.5.1.3.1.6.1.9.1.1 0 .3.1.4.1.5 0 .9.1 1.4.1h234.2c8.4.1 14.8-6.7 14.8-14.9z"/>
  <path fill="#FF7539" d="M164.6 109.9c7.6 7.6 17.5 11.4 27.4 11.4 9.9 0 19.8-3.8 27.4-11.4 15.1-15.1 15.1-39.7 0-54.8-7.6-7.6-17.5-11.4-27.4-11.4-9.9 0-19.8 3.8-27.4 11.4-15.2 15.1-15.2 39.7 0 54.8zm3.3-51.4c6.4-6.4 14.9-10 24-10s17.6 3.5 24 10c6.4 6.4 10 14.9 10 24s-3.5 17.6-10 24c-6.4 6.4-14.9 10-24 10s-17.6-3.5-24-10c-6.4-6.4-10-14.9-10-24 .1-9.1 3.6-17.6 10-24z"/>
  <path fill="#FF7539" d="M177 97.5c8.3 8.3 21.7 8.3 29.9 0 6.2-6.2 7.8-15.4 4.6-23.1-.3 2-1.1 3.8-2.6 5.3-1.2 1.2-2.7 2-4.3 2.4.1 3.3-1.1 6.7-3.7 9.2-4.9 4.9-12.9 4.9-17.8 0s-4.9-12.9 0-17.8c2.8-2.8 6.7-4 10.4-3.6.4-1.3 1.2-2.5 2.2-3.5 1.7-1.7 4-2.6 6.2-2.7-8-4.3-18.1-3-24.9 3.7-8.2 8.4-8.2 21.8 0 30.1z"/>
  <path fill="#212121" d="M183.1 73.6c-4.9 4.9-4.9 12.9 0 17.8s12.9 4.9 17.8 0c2.5-2.5 3.8-5.9 3.7-9.2-3.1.8-6.5 0-8.9-2.4-2.6-2.6-3.3-6.4-2.2-9.7-3.7-.5-7.6.7-10.4 3.5z"/>
  
</svg>
