<svg xmlns="http://www.w3.org/2000/svg" viewBox="0 0 111.1 115.5">
  <path fill="#FF7539" d="M55.6 108.5C27 108.5 3.8 85.3 3.8 56.7 3.8 28.2 27 5 55.6 5c28.6 0 51.7 23.2 51.7 51.7 0 28.6-23.2 51.8-51.7 51.8z"/>
  <path fill="#F9F9F9" d="M81.5 60.1c.1-1.1.2-2.2.2-3.4 0-1.2-.1-2.3-.3-3.4l7.4-5.8c.7-.5.8-1.5.4-2.2l-7-12.1c-.4-.8-1.4-1-2.1-.8L71.5 36c-1.8-1.4-3.7-2.5-5.9-3.4l-1.3-9.2c-.1-.9-.9-1.5-1.7-1.5h-14c-.9 0-1.6.6-1.7 1.5l-1.3 9.2c-2.1.9-4.1 2-5.9 3.4L31 32.5c-.8-.3-1.7 0-2.1.8l-7 12.1c-.4.8-.3 1.7.4 2.2l7.4 5.8c-.2 1.1-.3 2.3-.3 3.4s.1 2.3.3 3.4L22.3 66c-.7.5-.8 1.5-.4 2.2l7 12.1c.4.8 1.4 1 2.1.8l8.7-3.5c1.8 1.4 3.7 2.5 5.9 3.4l1.3 9.2c.2.9.9 1.5 1.7 1.5h13.9c.9 0 1.6-.6 1.7-1.5l1.3-9.2c2.1-.9 4.1-2 5.9-3.4l8.7 3.5c.8.3 1.7 0 2.1-.8l7-12.1c.4-.8.3-1.7-.4-2.2 0-.1-7.3-5.9-7.3-5.9zm-25.9 9.7c-7.2 0-13.1-5.9-13.1-13.1s5.9-13.1 13.1-13.1 13.1 5.9 13.1 13.1-5.9 13.1-13.1 13.1z"/>
</svg>
